<?xml version="1.0" standalone="no"?>
<!DOCTYPE svg PUBLIC "-//W3C//DTD SVG 20010904//EN"
 "http://www.w3.org/TR/2001/REC-SVG-20010904/DTD/svg10.dtd">
<svg version="1.0" xmlns="http://www.w3.org/2000/svg"
 width="299.000000pt" height="300.000000pt" viewBox="0 0 299.000000 300.000000"
 preserveAspectRatio="xMidYMid meet">

<g transform="translate(0.000000,300.000000) scale(0.100000,-0.100000)"
fill="#000000" stroke="none">
<path d="M1484 2864 c4 -32 12 -86 19 -119 l12 -60 102 -7 c101 -6 237 -37
345 -78 67 -25 261 -139 300 -177 51 -49 43 -52 -139 -50 -135 1 -181 -2 -233
-16 -78 -22 -236 -96 -278 -132 -50 -42 -36 -65 -163 270 -40 105 -88 237
-108 295 -31 88 -40 106 -59 108 -12 2 -71 -9 -130 -23 -358 -89 -665 -296
-858 -580 -106 -155 -164 -289 -214 -495 -30 -120 -38 -363 -17 -485 63 -357
246 -658 534 -878 67 -52 82 -56 105 -29 19 21 98 177 98 193 0 6 -12 21 -27
32 -56 43 -123 110 -123 122 0 7 18 57 39 112 22 54 76 202 120 329 140 403
360 1014 376 1044 18 34 30 38 43 13 5 -10 40 -109 77 -221 l68 -203 -32 -77
c-17 -43 -51 -138 -75 -212 -41 -130 -352 -1039 -398 -1167 -16 -45 -20 -67
-13 -78 6 -9 69 -36 140 -60 100 -33 133 -41 142 -32 11 12 42 105 223 662
140 432 159 480 177 461 6 -6 148 -411 234 -669 22 -64 42 -137 45 -161 l6
-43 -68 -18 c-51 -14 -113 -19 -234 -21 l-165 -3 -17 -98 c-9 -54 -17 -113
-17 -130 l-1 -33 145 0 c343 0 552 52 807 203 201 118 343 257 468 456 94 150
165 341 195 521 23 134 16 365 -14 485 -50 202 -120 354 -229 500 -147 197
-321 338 -575 467 -130 65 -350 119 -548 134 l-92 7 7 -59z m-494 -318 c0 -19
-22 -79 -192 -536 -77 -206 -169 -454 -204 -550 -36 -96 -78 -209 -93 -250
-16 -41 -33 -88 -36 -103 -9 -33 -33 -46 -46 -26 -18 28 -71 206 -85 284 -38
216 5 482 112 688 93 180 238 333 429 451 94 58 115 65 115 42z m1259 -407
c65 -15 146 -56 198 -101 l46 -39 28 27 c15 14 34 24 42 21 16 -6 71 -140 99
-246 17 -62 21 -106 21 -236 1 -142 -2 -171 -26 -259 -15 -55 -31 -104 -36
-109 -5 -5 -24 5 -45 24 -41 36 -37 37 -136 -26 -76 -49 -148 -68 -250 -68
-93 1 -153 19 -248 74 -64 36 -65 40 -163 329 -38 112 -73 208 -78 213 -5 5
-28 10 -52 11 -23 1 -45 8 -47 14 -2 7 12 47 32 88 64 135 188 239 332 279 59
16 221 19 283 4z m231 -1207 c0 -4 -17 -35 -39 -68 -62 -95 -283 -293 -315
-281 -17 7 -119 308 -108 319 5 5 44 3 87 -3 85 -11 240 1 320 26 50 16 55 17
55 7z"/>
</g>
</svg>
